<?xml version="1.0" standalone="no"?>
<!DOCTYPE svg PUBLIC "-//W3C//DTD SVG 20010904//EN"
 "http://www.w3.org/TR/2001/REC-SVG-20010904/DTD/svg10.dtd">
<svg version="1.0" xmlns="http://www.w3.org/2000/svg"
 width="120.000000pt" height="120.000000pt" viewBox="0 0 120.000000 120.000000"
 preserveAspectRatio="xMidYMid meet">

<g transform="translate(0.000000,120.000000) scale(0.100000,-0.100000)"
fill="#414141" stroke="none">
<path d="M588 1178 c-39 -32 -278 -299 -278 -311 0 -25 34 -46 79 -49 l44 -3
-92 -110 c-51 -60 -94 -120 -98 -133 -9 -35 13 -52 69 -52 27 0 48 -4 46 -9
-1 -5 -44 -54 -94 -110 -50 -55 -94 -109 -97 -120 -2 -11 2 -29 10 -40 13 -20
24 -21 189 -21 l174 0 0 -26 c0 -14 -18 -52 -40 -84 -67 -99 -57 -110 96 -110
178 0 195 16 124 120 -63 93 -67 90 130 90 157 0 172 2 190 20 11 11 20 28 20
38 0 10 -45 69 -100 130 -55 61 -100 113 -100 116 0 3 22 6 48 6 100 0 96 36
-23 180 l-95 115 51 5 c40 4 54 10 59 25 13 36 13 36 -197 258 -45 48 -86 87
-91 87 -4 0 -15 -6 -24 -12z"/>
</g>
</svg>
