<?xml version="1.0" encoding="utf-8"?>
<!-- Generator: Adobe Illustrator 16.0.0, SVG Export Plug-In . SVG Version: 6.00 Build 0)  -->
<!DOCTYPE svg PUBLIC "-//W3C//DTD SVG 1.1//EN" "http://www.w3.org/Graphics/SVG/1.1/DTD/svg11.dtd">
<svg version="1.1" id="logo" xmlns="http://www.w3.org/2000/svg" xmlns:xlink="http://www.w3.org/1999/xlink" x="0px" y="0px"
	 width="120px" height="120px" viewBox="0 0 120 120" enable-background="new 0 0 120 120" xml:space="preserve">
<path id="tree" fill="#414141" d="M104.154,88.159L85.789,67.356h7.043c2.07,0,3.902-1.149,4.775-3.003
	c0.875-1.85,0.586-3.968-0.754-5.529L78.891,37.93h6.643c2.094,0,3.979-1.229,4.799-3.128c0.807-1.869,0.426-4.046-0.977-5.538
	L64.006,2.259c-1.385-1.483-3.974-1.483-5.361,0L33.292,29.265c-1.403,1.492-1.782,3.668-0.975,5.538
	c0.818,1.899,2.705,3.128,4.798,3.128h6.641L25.793,58.828c-1.336,1.56-1.623,3.676-0.752,5.527
	c0.875,1.853,2.705,3.002,4.777,3.002h7.042L18.495,88.159c-1.38,1.56-1.693,3.697-0.819,5.578c0.862,1.85,2.759,3.044,4.83,3.044
	h31.463v5.621l-6.964,11.126c-1.223,2.447,0.555,5.325,3.289,5.325h22.061c2.734,0,4.514-2.878,3.289-5.325l-6.963-11.126v-5.621
	h31.463c2.072,0,3.967-1.194,4.828-3.044C105.848,91.856,105.535,89.719,104.154,88.159z"/>
</svg>
