<?xml version="1.0" encoding="UTF-8"?>
<svg id="Layer_1" data-name="Layer 1" xmlns="http://www.w3.org/2000/svg" version="1.1" viewBox="0 0 120 120">
  <defs>
    <style>
      .cls-1 {
        fill: none;
      }

      .cls-1, .cls-2 {
        stroke-width: 0px;
      }

      .cls-2 {
        fill: #414141;
      }
    </style>
  </defs>
  <path class="cls-1" d="M-52.5-52.5h225v225H-52.5V-52.5Z"/>
  <path class="cls-2" d="M59.2,5h1.5l1.5,1,4,4,1.8,2,4,4.2,3.8,4,3.5,3.8,2.8,3,3.5,3.8,1.2,2.2.5,2.5-.8,1.8-1.8,1.5-1.5.5h-6.5l1.5,2,3,3.5,2,2.5,2.2,2.8,2.8,3.2,2.2,2.8,3,3.8.8,1.5v2l-1,2-1.2,1-1.2.5-2.2.2h-4.5l-1.2-.2,1.8,2.2,2.2,2.2,1.8,2,2.2,2.5,2.8,3,1.8,2,3.5,3.8,2,2.8.5,1.2v1.8l-1,2.2-1.2,1.2-1.5.8-2.2.2h-28.2l.2,3.5,2.5,4,3,4.2,1,1.8v2.5l-.8,1.5-1.5,1.2-1.5.2h-21.5l-1.8-.8-1-1.8.2-1.8,1.8-2.8,4.8-7.2.2-.5.2-5.2h-30.5l-1.8-.8-1.2-1.5-.5-1v-2l1-2.2,2-2.5,3.8-4,2.5-2.8,1.8-2,3.2-3.5,1.8-2,2.2-2.8-1,.2h-6.5l-2-.8-1.5-1.8-.2-.5v-2.5l1.5-3,2.8-3.2,2.2-2.8,2.8-3.2,2-2.5,2.2-2.8,3.2-4,.5-.8h-6.8l-2.2-1-1-1.2-.5-1.2v-2.5l1.5-2.2,1.8-1.8,1.8-2,2.8-2.8,1.8-2,1.8-1.8,1.8-2,4-4.2,2.8-3,4-4.2,1.8-1.8,1-.5Z"/>
</svg>