<svg xmlns="http://www.w3.org/2000/svg" width="120" height="120"><path fill="#414141" d="M104.154 88.159L85.789 67.356h7.043c2.07 0 3.902-1.149 4.775-3.003.875-1.85.586-3.968-.754-5.529L78.891 37.93h6.643c2.094 0 3.979-1.229 4.799-3.128a5.122 5.122 0 00-.977-5.538L64.006 2.259c-1.385-1.483-3.974-1.483-5.361 0L33.292 29.265a5.121 5.121 0 00-.975 5.538c.818 1.899 2.705 3.128 4.798 3.128h6.641L25.793 58.828c-1.336 1.56-1.623 3.676-.752 5.527.875 1.853 2.705 3.002 4.777 3.002h7.042L18.495 88.159c-1.38 1.56-1.693 3.697-.819 5.578.862 1.85 2.759 3.044 4.83 3.044h31.463v5.621l-6.964 11.126c-1.223 2.447.555 5.325 3.289 5.325h22.061c2.734 0 4.514-2.878 3.289-5.325l-6.963-11.126v-5.621h31.463c2.072 0 3.967-1.194 4.828-3.044.876-1.881.563-4.018-.818-5.578z"/></svg>